<svg xmlns="http://www.w3.org/2000/svg" viewBox="0 0 900 280" fill="none">
  <defs>
    <linearGradient id="bg" x1="0" y1="0" x2="900" y2="280" gradientUnits="userSpaceOnUse">
      <stop offset="0%" stop-color="#f8fbff"/>
      <stop offset="100%" stop-color="#eef5fc"/>
    </linearGradient>
    <linearGradient id="blue1" x1="0" y1="0" x2="0" y2="1">
      <stop offset="0%" stop-color="#38bdf8"/>
      <stop offset="100%" stop-color="#0284c7"/>
    </linearGradient>
    <linearGradient id="blue2" x1="0" y1="0" x2="0" y2="1">
      <stop offset="0%" stop-color="#67e8f9"/>
      <stop offset="100%" stop-color="#06b6d4"/>
    </linearGradient>
    <linearGradient id="blue3" x1="0" y1="0" x2="0" y2="1">
      <stop offset="0%" stop-color="#a5b4fc"/>
      <stop offset="100%" stop-color="#6366f1"/>
    </linearGradient>
    <filter id="shadow" x="-4%" y="-4%" width="108%" height="108%">
      <feDropShadow dx="0" dy="2" stdDeviation="4" flood-color="#0284c7" flood-opacity="0.08"/>
    </filter>
  </defs>

  <!-- Background -->
  <rect width="900" height="280" rx="16" fill="url(#bg)"/>

  <!-- S matrix (8x8) -->
  <g transform="translate(60, 40)" filter="url(#shadow)">
    <!-- Matrix border -->
    <rect x="-2" y="-2" width="164" height="164" rx="6" fill="white" stroke="#cbd5e1" stroke-width="1"/>
    <!-- Cells - symmetric pattern showing similarity structure -->
    <!-- Row 0 -->
    <rect x="0" y="0" width="20" height="20" rx="2" fill="#0284c7" opacity="0.9"/>
    <rect x="20" y="0" width="20" height="20" rx="2" fill="#38bdf8" opacity="0.6"/>
    <rect x="40" y="0" width="20" height="20" rx="2" fill="#38bdf8" opacity="0.35"/>
    <rect x="60" y="0" width="20" height="20" rx="2" fill="#e0f2fe" opacity="0.8"/>
    <rect x="80" y="0" width="20" height="20" rx="2" fill="#38bdf8" opacity="0.5"/>
    <rect x="100" y="0" width="20" height="20" rx="2" fill="#e0f2fe" opacity="0.8"/>
    <rect x="120" y="0" width="20" height="20" rx="2" fill="#38bdf8" opacity="0.3"/>
    <rect x="140" y="0" width="20" height="20" rx="2" fill="#e0f2fe" opacity="0.6"/>
    <!-- Row 1 -->
    <rect x="0" y="20" width="20" height="20" rx="2" fill="#38bdf8" opacity="0.6"/>
    <rect x="20" y="20" width="20" height="20" rx="2" fill="#0284c7" opacity="0.9"/>
    <rect x="40" y="20" width="20" height="20" rx="2" fill="#38bdf8" opacity="0.7"/>
    <rect x="60" y="20" width="20" height="20" rx="2" fill="#38bdf8" opacity="0.4"/>
    <rect x="80" y="20" width="20" height="20" rx="2" fill="#e0f2fe" opacity="0.7"/>
    <rect x="100" y="20" width="20" height="20" rx="2" fill="#38bdf8" opacity="0.45"/>
    <rect x="120" y="20" width="20" height="20" rx="2" fill="#e0f2fe" opacity="0.8"/>
    <rect x="140" y="20" width="20" height="20" rx="2" fill="#38bdf8" opacity="0.35"/>
    <!-- Row 2 -->
    <rect x="0" y="40" width="20" height="20" rx="2" fill="#38bdf8" opacity="0.35"/>
    <rect x="20" y="40" width="20" height="20" rx="2" fill="#38bdf8" opacity="0.7"/>
    <rect x="40" y="40" width="20" height="20" rx="2" fill="#0284c7" opacity="0.9"/>
    <rect x="60" y="40" width="20" height="20" rx="2" fill="#38bdf8" opacity="0.55"/>
    <rect x="80" y="40" width="20" height="20" rx="2" fill="#e0f2fe" opacity="0.6"/>
    <rect x="100" y="40" width="20" height="20" rx="2" fill="#38bdf8" opacity="0.3"/>
    <rect x="120" y="40" width="20" height="20" rx="2" fill="#38bdf8" opacity="0.5"/>
    <rect x="140" y="40" width="20" height="20" rx="2" fill="#e0f2fe" opacity="0.7"/>
    <!-- Row 3 -->
    <rect x="0" y="60" width="20" height="20" rx="2" fill="#e0f2fe" opacity="0.8"/>
    <rect x="20" y="60" width="20" height="20" rx="2" fill="#38bdf8" opacity="0.4"/>
    <rect x="40" y="60" width="20" height="20" rx="2" fill="#38bdf8" opacity="0.55"/>
    <rect x="60" y="60" width="20" height="20" rx="2" fill="#0284c7" opacity="0.9"/>
    <rect x="80" y="60" width="20" height="20" rx="2" fill="#38bdf8" opacity="0.65"/>
    <rect x="100" y="60" width="20" height="20" rx="2" fill="#38bdf8" opacity="0.5"/>
    <rect x="120" y="60" width="20" height="20" rx="2" fill="#e0f2fe" opacity="0.6"/>
    <rect x="140" y="60" width="20" height="20" rx="2" fill="#38bdf8" opacity="0.4"/>
    <!-- Row 4 -->
    <rect x="0" y="80" width="20" height="20" rx="2" fill="#38bdf8" opacity="0.5"/>
    <rect x="20" y="80" width="20" height="20" rx="2" fill="#e0f2fe" opacity="0.7"/>
    <rect x="40" y="80" width="20" height="20" rx="2" fill="#e0f2fe" opacity="0.6"/>
    <rect x="60" y="80" width="20" height="20" rx="2" fill="#38bdf8" opacity="0.65"/>
    <rect x="80" y="80" width="20" height="20" rx="2" fill="#0284c7" opacity="0.9"/>
    <rect x="100" y="80" width="20" height="20" rx="2" fill="#38bdf8" opacity="0.7"/>
    <rect x="120" y="80" width="20" height="20" rx="2" fill="#38bdf8" opacity="0.45"/>
    <rect x="140" y="80" width="20" height="20" rx="2" fill="#e0f2fe" opacity="0.5"/>
    <!-- Row 5 -->
    <rect x="0" y="100" width="20" height="20" rx="2" fill="#e0f2fe" opacity="0.8"/>
    <rect x="20" y="100" width="20" height="20" rx="2" fill="#38bdf8" opacity="0.45"/>
    <rect x="40" y="100" width="20" height="20" rx="2" fill="#38bdf8" opacity="0.3"/>
    <rect x="60" y="100" width="20" height="20" rx="2" fill="#38bdf8" opacity="0.5"/>
    <rect x="80" y="100" width="20" height="20" rx="2" fill="#38bdf8" opacity="0.7"/>
    <rect x="100" y="100" width="20" height="20" rx="2" fill="#0284c7" opacity="0.9"/>
    <rect x="120" y="100" width="20" height="20" rx="2" fill="#38bdf8" opacity="0.6"/>
    <rect x="140" y="100" width="20" height="20" rx="2" fill="#38bdf8" opacity="0.35"/>
    <!-- Row 6 -->
    <rect x="0" y="120" width="20" height="20" rx="2" fill="#38bdf8" opacity="0.3"/>
    <rect x="20" y="120" width="20" height="20" rx="2" fill="#e0f2fe" opacity="0.8"/>
    <rect x="40" y="120" width="20" height="20" rx="2" fill="#38bdf8" opacity="0.5"/>
    <rect x="60" y="120" width="20" height="20" rx="2" fill="#e0f2fe" opacity="0.6"/>
    <rect x="80" y="120" width="20" height="20" rx="2" fill="#38bdf8" opacity="0.45"/>
    <rect x="100" y="120" width="20" height="20" rx="2" fill="#38bdf8" opacity="0.6"/>
    <rect x="120" y="120" width="20" height="20" rx="2" fill="#0284c7" opacity="0.9"/>
    <rect x="140" y="120" width="20" height="20" rx="2" fill="#38bdf8" opacity="0.55"/>
    <!-- Row 7 -->
    <rect x="0" y="140" width="20" height="20" rx="2" fill="#e0f2fe" opacity="0.6"/>
    <rect x="20" y="140" width="20" height="20" rx="2" fill="#38bdf8" opacity="0.35"/>
    <rect x="40" y="140" width="20" height="20" rx="2" fill="#e0f2fe" opacity="0.7"/>
    <rect x="60" y="140" width="20" height="20" rx="2" fill="#38bdf8" opacity="0.4"/>
    <rect x="80" y="140" width="20" height="20" rx="2" fill="#e0f2fe" opacity="0.5"/>
    <rect x="100" y="140" width="20" height="20" rx="2" fill="#38bdf8" opacity="0.35"/>
    <rect x="120" y="140" width="20" height="20" rx="2" fill="#38bdf8" opacity="0.55"/>
    <rect x="140" y="140" width="20" height="20" rx="2" fill="#0284c7" opacity="0.9"/>
    <!-- Label -->
    <text x="80" y="190" text-anchor="middle" font-family="'Inter','Helvetica Neue',sans-serif" font-size="20" font-weight="600" fill="#0c4a6e" font-style="italic">S</text>
    <text x="80" y="212" text-anchor="middle" font-family="'Inter','Helvetica Neue',sans-serif" font-size="11" fill="#64748b">similarity</text>
  </g>

  <!-- ≈ symbol -->
  <text x="295" y="130" text-anchor="middle" font-family="'Inter','Helvetica Neue',sans-serif" font-size="36" font-weight="300" fill="#94a3b8">≈</text>

  <!-- W matrix (8x3, sparse) -->
  <g transform="translate(340, 40)" filter="url(#shadow)">
    <rect x="-2" y="-2" width="64" height="164" rx="6" fill="white" stroke="#cbd5e1" stroke-width="1"/>
    <!-- Sparse columns with distinct colors per dimension -->
    <!-- Col 0 (cyan/teal dimension) -->
    <rect x="0" y="0" width="20" height="20" rx="2" fill="#06b6d4" opacity="0.85"/>
    <rect x="0" y="20" width="20" height="20" rx="2" fill="#06b6d4" opacity="0.6"/>
    <rect x="0" y="40" width="20" height="20" rx="2" fill="#f0f9ff"/>
    <rect x="0" y="60" width="20" height="20" rx="2" fill="#f0f9ff"/>
    <rect x="0" y="80" width="20" height="20" rx="2" fill="#06b6d4" opacity="0.4"/>
    <rect x="0" y="100" width="20" height="20" rx="2" fill="#f0f9ff"/>
    <rect x="0" y="120" width="20" height="20" rx="2" fill="#f0f9ff"/>
    <rect x="0" y="140" width="20" height="20" rx="2" fill="#06b6d4" opacity="0.3"/>
    <!-- Col 1 (indigo dimension) -->
    <rect x="20" y="0" width="20" height="20" rx="2" fill="#f0f9ff"/>
    <rect x="20" y="20" width="20" height="20" rx="2" fill="#6366f1" opacity="0.5"/>
    <rect x="20" y="40" width="20" height="20" rx="2" fill="#6366f1" opacity="0.8"/>
    <rect x="20" y="60" width="20" height="20" rx="2" fill="#6366f1" opacity="0.65"/>
    <rect x="20" y="80" width="20" height="20" rx="2" fill="#f0f9ff"/>
    <rect x="20" y="100" width="20" height="20" rx="2" fill="#6366f1" opacity="0.4"/>
    <rect x="20" y="120" width="20" height="20" rx="2" fill="#6366f1" opacity="0.7"/>
    <rect x="20" y="140" width="20" height="20" rx="2" fill="#f0f9ff"/>
    <!-- Col 2 (sky blue dimension) -->
    <rect x="40" y="0" width="20" height="20" rx="2" fill="#f0f9ff"/>
    <rect x="40" y="20" width="20" height="20" rx="2" fill="#f0f9ff"/>
    <rect x="40" y="40" width="20" height="20" rx="2" fill="#0ea5e9" opacity="0.35"/>
    <rect x="40" y="60" width="20" height="20" rx="2" fill="#0ea5e9" opacity="0.7"/>
    <rect x="40" y="80" width="20" height="20" rx="2" fill="#0ea5e9" opacity="0.85"/>
    <rect x="40" y="100" width="20" height="20" rx="2" fill="#0ea5e9" opacity="0.75"/>
    <rect x="40" y="120" width="20" height="20" rx="2" fill="#f0f9ff"/>
    <rect x="40" y="140" width="20" height="20" rx="2" fill="#0ea5e9" opacity="0.5"/>
    <!-- Label -->
    <text x="30" y="190" text-anchor="middle" font-family="'Inter','Helvetica Neue',sans-serif" font-size="20" font-weight="600" fill="#0c4a6e" font-style="italic">W</text>
    <text x="30" y="212" text-anchor="middle" font-family="'Inter','Helvetica Neue',sans-serif" font-size="11" fill="#64748b">dimensions</text>
  </g>

  <!-- × symbol -->
  <text x="440" y="130" text-anchor="middle" font-family="'Inter','Helvetica Neue',sans-serif" font-size="28" font-weight="300" fill="#94a3b8">×</text>

  <!-- W^T matrix (3x8, sparse) -->
  <g transform="translate(475, 65)" filter="url(#shadow)">
    <rect x="-2" y="-2" width="164" height="64" rx="6" fill="white" stroke="#cbd5e1" stroke-width="1"/>
    <!-- Row 0 (cyan - transposed from W col 0) -->
    <rect x="0" y="0" width="20" height="20" rx="2" fill="#06b6d4" opacity="0.85"/>
    <rect x="20" y="0" width="20" height="20" rx="2" fill="#06b6d4" opacity="0.6"/>
    <rect x="40" y="0" width="20" height="20" rx="2" fill="#f0f9ff"/>
    <rect x="60" y="0" width="20" height="20" rx="2" fill="#f0f9ff"/>
    <rect x="80" y="0" width="20" height="20" rx="2" fill="#06b6d4" opacity="0.4"/>
    <rect x="100" y="0" width="20" height="20" rx="2" fill="#f0f9ff"/>
    <rect x="120" y="0" width="20" height="20" rx="2" fill="#f0f9ff"/>
    <rect x="140" y="0" width="20" height="20" rx="2" fill="#06b6d4" opacity="0.3"/>
    <!-- Row 1 (indigo - transposed from W col 1) -->
    <rect x="0" y="20" width="20" height="20" rx="2" fill="#f0f9ff"/>
    <rect x="20" y="20" width="20" height="20" rx="2" fill="#6366f1" opacity="0.5"/>
    <rect x="40" y="20" width="20" height="20" rx="2" fill="#6366f1" opacity="0.8"/>
    <rect x="60" y="20" width="20" height="20" rx="2" fill="#6366f1" opacity="0.65"/>
    <rect x="80" y="20" width="20" height="20" rx="2" fill="#f0f9ff"/>
    <rect x="100" y="20" width="20" height="20" rx="2" fill="#6366f1" opacity="0.4"/>
    <rect x="120" y="20" width="20" height="20" rx="2" fill="#6366f1" opacity="0.7"/>
    <rect x="140" y="20" width="20" height="20" rx="2" fill="#f0f9ff"/>
    <!-- Row 2 (sky blue - transposed from W col 2) -->
    <rect x="0" y="40" width="20" height="20" rx="2" fill="#f0f9ff"/>
    <rect x="20" y="40" width="20" height="20" rx="2" fill="#f0f9ff"/>
    <rect x="40" y="40" width="20" height="20" rx="2" fill="#0ea5e9" opacity="0.35"/>
    <rect x="60" y="40" width="20" height="20" rx="2" fill="#0ea5e9" opacity="0.7"/>
    <rect x="80" y="40" width="20" height="20" rx="2" fill="#0ea5e9" opacity="0.85"/>
    <rect x="100" y="40" width="20" height="20" rx="2" fill="#0ea5e9" opacity="0.75"/>
    <rect x="120" y="40" width="20" height="20" rx="2" fill="#f0f9ff"/>
    <rect x="140" y="40" width="20" height="20" rx="2" fill="#0ea5e9" opacity="0.5"/>
    <!-- Label -->
    <text x="80" y="95" text-anchor="middle" font-family="'Inter','Helvetica Neue',sans-serif" font-size="20" font-weight="600" fill="#0c4a6e" font-style="italic">W</text>
    <text x="93" y="88" text-anchor="middle" font-family="'Inter','Helvetica Neue',sans-serif" font-size="12" font-weight="600" fill="#0c4a6e" font-style="italic">T</text>
  </g>

  <!-- Dimension annotations -->
  <g transform="translate(680, 40)">
    <!-- Dim 1 -->
    <rect x="0" y="12" width="12" height="12" rx="3" fill="#06b6d4" opacity="0.8"/>
    <text x="20" y="23" font-family="'Inter','Helvetica Neue',sans-serif" font-size="13" fill="#334155">dimension 1</text>
    <!-- Dim 2 -->
    <rect x="0" y="42" width="12" height="12" rx="3" fill="#6366f1" opacity="0.75"/>
    <text x="20" y="53" font-family="'Inter','Helvetica Neue',sans-serif" font-size="13" fill="#334155">dimension 2</text>
    <!-- Dim 3 -->
    <rect x="0" y="72" width="12" height="12" rx="3" fill="#0ea5e9" opacity="0.8"/>
    <text x="20" y="83" font-family="'Inter','Helvetica Neue',sans-serif" font-size="13" fill="#334155">dimension 3</text>
    <!-- Zero -->
    <rect x="0" y="102" width="12" height="12" rx="3" fill="#f0f9ff" stroke="#cbd5e1" stroke-width="0.5"/>
    <text x="20" y="113" font-family="'Inter','Helvetica Neue',sans-serif" font-size="13" fill="#334155">sparse (zero)</text>

    <!-- Sparsity note -->
    <text x="0" y="160" font-family="'Inter','Helvetica Neue',sans-serif" font-size="12" fill="#94a3b8">non-negative</text>
    <text x="0" y="176" font-family="'Inter','Helvetica Neue',sans-serif" font-size="12" fill="#94a3b8">+ sparse</text>
    <text x="0" y="192" font-family="'Inter','Helvetica Neue',sans-serif" font-size="12" fill="#94a3b8">= interpretable</text>
  </g>

  <!-- Size annotations -->
  <text x="140" y="35" text-anchor="middle" font-family="'Inter','Helvetica Neue',sans-serif" font-size="11" fill="#94a3b8" font-style="italic">n × n</text>
  <text x="370" y="35" text-anchor="middle" font-family="'Inter','Helvetica Neue',sans-serif" font-size="11" fill="#94a3b8" font-style="italic">n × k</text>
  <text x="557" y="58" text-anchor="middle" font-family="'Inter','Helvetica Neue',sans-serif" font-size="11" fill="#94a3b8" font-style="italic">k × n</text>
</svg>
