<?xml version="1.0" encoding="UTF-8" standalone="no"?>
<!DOCTYPE svg PUBLIC "-//W3C//DTD SVG 1.1//EN" "http://www.w3.org/Graphics/SVG/1.1/DTD/svg11.dtd">
<svg width="100%" height="100%" viewBox="0 0 322 360" version="1.1" xmlns="http://www.w3.org/2000/svg" xmlns:xlink="http://www.w3.org/1999/xlink" xml:space="preserve" xmlns:serif="http://www.serif.com/" style="fill-rule:evenodd;clip-rule:evenodd;stroke-linecap:square;">
    <g transform="matrix(1,0,0,1,-4969.517644,-4557.031189)">
        <g id="graph" transform="matrix(0.151452,0,0,0.228094,4969.517644,4557.031189)">
            <rect x="0" y="0" width="2125.984" height="1574.162" style="fill:none;"/>
            <g transform="matrix(6.360626,0,0,2.432715,-4523.545795,-468.791904)">
                <g id="patch_2" transform="matrix(1.047389,0,0,1.818348,709.487436,197.401972)">
                    <path d="M92.047,272.983C114.549,272.983 136.132,264.043 152.043,248.131C167.955,232.22 176.895,210.637 176.895,188.135C176.895,165.634 167.955,144.05 152.043,128.139C136.132,112.228 114.549,103.288 92.047,103.288C69.546,103.288 47.962,112.228 32.051,128.139C16.14,144.05 7.2,165.634 7.2,188.135C7.2,210.637 16.14,232.22 32.051,248.131C47.962,264.043 69.546,272.983 92.047,272.983Z" style="fill:rgb(204,102,119);fill-opacity:0.04;fill-rule:nonzero;"/>
                </g>
                <g id="patch_3" transform="matrix(1.047389,0,0,1.818348,709.487436,197.401972)">
                    <path d="M92.047,257.556C110.458,257.556 128.117,250.241 141.135,237.223C154.153,224.205 161.468,206.546 161.468,188.135C161.468,169.725 154.153,152.066 141.135,139.048C128.117,126.029 110.458,118.715 92.047,118.715C73.637,118.715 55.978,126.029 42.96,139.048C29.941,152.066 22.627,169.725 22.627,188.135C22.627,206.546 29.941,224.205 42.96,237.223C55.978,250.241 73.637,257.556 92.047,257.556Z" style="fill:rgb(204,102,119);fill-opacity:0.07;fill-rule:nonzero;"/>
                </g>
                <g id="patch_4" transform="matrix(1.047389,0,0,1.818348,709.487436,197.401972)">
                    <path d="M92.047,242.129C106.367,242.129 120.101,236.44 130.227,226.315C140.352,216.189 146.041,202.455 146.041,188.135C146.041,173.816 140.352,160.081 130.227,149.956C120.101,139.831 106.367,134.142 92.047,134.142C77.728,134.142 63.993,139.831 53.868,149.956C43.743,160.081 38.054,173.816 38.054,188.135C38.054,202.455 43.743,216.189 53.868,226.315C63.993,236.44 77.728,242.129 92.047,242.129Z" style="fill:rgb(204,102,119);fill-opacity:0.1;fill-rule:nonzero;"/>
                </g>
                <g id="patch_5" transform="matrix(1.047389,0,0,1.818348,709.487436,197.401972)">
                    <path d="M92.047,226.702C102.275,226.702 112.086,222.639 119.318,215.406C126.551,208.174 130.614,198.363 130.614,188.135C130.614,177.907 126.551,168.097 119.318,160.864C112.086,153.632 102.275,149.568 92.047,149.568C81.819,149.568 72.009,153.632 64.776,160.864C57.544,168.097 53.48,177.907 53.48,188.135C53.48,198.363 57.544,208.174 64.776,215.406C72.009,222.639 81.819,226.702 92.047,226.702Z" style="fill:rgb(204,102,119);fill-opacity:0.14;fill-rule:nonzero;"/>
                </g>
                <g id="patch_6" transform="matrix(1.047389,0,0,1.818348,709.487436,197.401972)">
                    <path d="M92.047,211.276C98.184,211.276 104.07,208.837 108.41,204.498C112.749,200.159 115.187,194.272 115.187,188.135C115.187,181.999 112.749,176.112 108.41,171.773C104.07,167.433 98.184,164.995 92.047,164.995C85.91,164.995 80.024,167.433 75.685,171.773C71.345,176.112 68.907,181.999 68.907,188.135C68.907,194.272 71.345,200.159 75.685,204.498C80.024,208.837 85.91,211.276 92.047,211.276Z" style="fill:rgb(204,102,119);fill-opacity:0.2;fill-rule:nonzero;"/>
                </g>
                <g id="patch_7" transform="matrix(1.047389,0,0,1.818348,709.487436,197.401972)">
                    <path d="M92.047,200.477C95.32,200.477 98.46,199.176 100.774,196.862C103.088,194.548 104.389,191.408 104.389,188.135C104.389,184.862 103.088,181.723 100.774,179.409C98.46,177.094 95.32,175.794 92.047,175.794C88.774,175.794 85.635,177.094 83.321,179.409C81.006,181.723 79.706,184.862 79.706,188.135C79.706,191.408 81.006,194.548 83.321,196.862C85.635,199.176 88.774,200.477 92.047,200.477Z" style="fill:rgb(204,102,119);fill-opacity:0.28;fill-rule:nonzero;"/>
                </g>
                <g id="patch_8" transform="matrix(1.047389,0,0,1.818348,709.487436,197.401972)">
                    <path d="M230.483,299.85C252.985,299.85 274.568,290.91 290.48,274.998C306.391,259.087 315.331,237.504 315.331,215.002C315.331,192.501 306.391,170.917 290.48,155.006C274.568,139.095 252.985,130.155 230.483,130.155C207.982,130.155 186.399,139.095 170.487,155.006C154.576,170.917 145.636,192.501 145.636,215.002C145.636,237.504 154.576,259.087 170.487,274.998C186.399,290.91 207.982,299.85 230.483,299.85Z" style="fill:rgb(51,34,136);fill-opacity:0.03;fill-rule:nonzero;"/>
                </g>
                <g id="patch_9" transform="matrix(1.047389,0,0,1.818348,709.487436,197.401972)">
                    <path d="M230.483,284.423C248.894,284.423 266.553,277.108 279.571,264.09C292.589,251.072 299.904,233.413 299.904,215.002C299.904,196.592 292.589,178.933 279.571,165.915C266.553,152.896 248.894,145.582 230.483,145.582C212.073,145.582 194.414,152.896 181.396,165.915C168.378,178.933 161.063,196.592 161.063,215.002C161.063,233.413 168.378,251.072 181.396,264.09C194.414,277.108 212.073,284.423 230.483,284.423Z" style="fill:rgb(51,34,136);fill-opacity:0.06;fill-rule:nonzero;"/>
                </g>
                <g id="patch_10" transform="matrix(1.047389,0,0,1.818348,709.487436,197.401972)">
                    <path d="M230.483,268.996C244.803,268.996 258.538,263.307 268.663,253.182C278.788,243.056 284.477,229.322 284.477,215.002C284.477,200.683 278.788,186.948 268.663,176.823C258.538,166.698 244.803,161.009 230.483,161.009C216.164,161.009 202.429,166.698 192.304,176.823C182.179,186.948 176.49,200.683 176.49,215.002C176.49,229.322 182.179,243.056 192.304,253.182C202.429,263.307 216.164,268.996 230.483,268.996Z" style="fill:rgb(51,34,136);fill-opacity:0.08;fill-rule:nonzero;"/>
                </g>
                <g id="patch_11" transform="matrix(1.047389,0,0,1.818348,709.487436,197.401972)">
                    <path d="M230.483,253.569C240.712,253.569 250.522,249.506 257.754,242.273C264.987,235.041 269.05,225.23 269.05,215.002C269.05,204.774 264.987,194.964 257.754,187.731C250.522,180.499 240.712,176.435 230.483,176.435C220.255,176.435 210.445,180.499 203.213,187.731C195.98,194.964 191.917,204.774 191.917,215.002C191.917,225.23 195.98,235.041 203.213,242.273C210.445,249.506 220.255,253.569 230.483,253.569Z" style="fill:rgb(51,34,136);fill-opacity:0.11;fill-rule:nonzero;"/>
                </g>
                <g id="patch_12" transform="matrix(1.047389,0,0,1.818348,709.487436,197.401972)">
                    <path d="M230.483,238.142C236.62,238.142 242.507,235.704 246.846,231.365C251.185,227.025 253.624,221.139 253.624,215.002C253.624,208.865 251.185,202.979 246.846,198.64C242.507,194.3 236.62,191.862 230.483,191.862C224.347,191.862 218.46,194.3 214.121,198.64C209.781,202.979 207.343,208.865 207.343,215.002C207.343,221.139 209.781,227.025 214.121,231.365C218.46,235.704 224.347,238.142 230.483,238.142Z" style="fill:rgb(51,34,136);fill-opacity:0.16;fill-rule:nonzero;"/>
                </g>
                <g id="patch_13" transform="matrix(1.047389,0,0,1.818348,709.487436,197.401972)">
                    <path d="M230.483,227.344C233.756,227.344 236.896,226.043 239.21,223.729C241.525,221.415 242.825,218.275 242.825,215.002C242.825,211.729 241.525,208.59 239.21,206.276C236.896,203.961 233.756,202.661 230.483,202.661C227.21,202.661 224.071,203.961 221.757,206.276C219.442,208.59 218.142,211.729 218.142,215.002C218.142,218.275 219.442,221.415 221.757,223.729C224.071,226.043 227.21,227.344 230.483,227.344Z" style="fill:rgb(51,34,136);fill-opacity:0.22;fill-rule:nonzero;"/>
                </g>
                <g id="patch_14" transform="matrix(1.047389,0,0,1.818348,709.487436,197.401972)">
                    <path d="M156.743,176.895C179.245,176.895 200.828,167.955 216.74,152.043C232.651,136.132 241.591,114.549 241.591,92.047C241.591,69.546 232.651,47.962 216.74,32.051C200.828,16.14 179.245,7.2 156.743,7.2C134.242,7.2 112.658,16.14 96.747,32.051C80.836,47.962 71.896,69.546 71.896,92.047C71.896,114.549 80.836,136.132 96.747,152.043C112.658,167.955 134.242,176.895 156.743,176.895Z" style="fill:rgb(68,170,153);fill-opacity:0.04;fill-rule:nonzero;"/>
                </g>
                <g id="patch_15" transform="matrix(1.047389,0,0,1.818348,709.487436,197.401972)">
                    <path d="M156.743,161.468C175.154,161.468 192.813,154.153 205.831,141.135C218.849,128.117 226.164,110.458 226.164,92.047C226.164,73.637 218.849,55.978 205.831,42.96C192.813,29.941 175.154,22.627 156.743,22.627C138.333,22.627 120.674,29.941 107.656,42.96C94.637,55.978 87.323,73.637 87.323,92.047C87.323,110.458 94.637,128.117 107.656,141.135C120.674,154.153 138.333,161.468 156.743,161.468Z" style="fill:rgb(68,170,153);fill-opacity:0.07;fill-rule:nonzero;"/>
                </g>
                <g id="patch_16" transform="matrix(1.047389,0,0,1.818348,709.487436,197.401972)">
                    <path d="M156.743,146.041C171.063,146.041 184.797,140.352 194.923,130.227C205.048,120.101 210.737,106.367 210.737,92.047C210.737,77.728 205.048,63.993 194.923,53.868C184.797,43.743 171.063,38.054 156.743,38.054C142.424,38.054 128.689,43.743 118.564,53.868C108.439,63.993 102.75,77.728 102.75,92.047C102.75,106.367 108.439,120.101 118.564,130.227C128.689,140.352 142.424,146.041 156.743,146.041Z" style="fill:rgb(68,170,153);fill-opacity:0.1;fill-rule:nonzero;"/>
                </g>
                <g id="patch_17" transform="matrix(1.047389,0,0,1.818348,709.487436,197.401972)">
                    <path d="M156.743,130.614C166.972,130.614 176.782,126.551 184.014,119.318C191.247,112.086 195.31,102.275 195.31,92.047C195.31,81.819 191.247,72.009 184.014,64.776C176.782,57.544 166.972,53.48 156.743,53.48C146.515,53.48 136.705,57.544 129.472,64.776C122.24,72.009 118.176,81.819 118.176,92.047C118.176,102.275 122.24,112.086 129.472,119.318C136.705,126.551 146.515,130.614 156.743,130.614Z" style="fill:rgb(68,170,153);fill-opacity:0.14;fill-rule:nonzero;"/>
                </g>
                <g id="patch_18" transform="matrix(1.047389,0,0,1.818348,709.487436,197.401972)">
                    <path d="M156.743,115.187C162.88,115.187 168.767,112.749 173.106,108.41C177.445,104.07 179.884,98.184 179.884,92.047C179.884,85.91 177.445,80.024 173.106,75.685C168.767,71.345 162.88,68.907 156.743,68.907C150.607,68.907 144.72,71.345 140.381,75.685C136.041,80.024 133.603,85.91 133.603,92.047C133.603,98.184 136.041,104.07 140.381,108.41C144.72,112.749 150.607,115.187 156.743,115.187Z" style="fill:rgb(68,170,153);fill-opacity:0.2;fill-rule:nonzero;"/>
                </g>
                <g id="patch_19" transform="matrix(1.047389,0,0,1.818348,709.487436,197.401972)">
                    <path d="M156.743,104.389C160.016,104.389 163.156,103.088 165.47,100.774C167.784,98.46 169.085,95.32 169.085,92.047C169.085,88.774 167.784,85.635 165.47,83.321C163.156,81.006 160.016,79.706 156.743,79.706C153.47,79.706 150.331,81.006 148.017,83.321C145.702,85.635 144.402,88.774 144.402,92.047C144.402,95.32 145.702,98.46 148.017,100.774C150.331,103.088 153.47,104.389 156.743,104.389Z" style="fill:rgb(68,170,153);fill-opacity:0.28;fill-rule:nonzero;"/>
                </g>
                <g id="line2d_1" transform="matrix(1.047389,0,0,1.818348,709.487436,197.401972)">
                    <path d="M87.804,192.691L47.776,186.927" style="fill:none;fill-rule:nonzero;stroke:rgb(136,136,136);stroke-opacity:0.86;stroke-width:2.17px;"/>
                </g>
                <g id="line2d_2" transform="matrix(1.047389,0,0,1.818348,709.487436,197.401972)">
                    <path d="M87.804,192.691L77.622,235.704" style="fill:none;fill-rule:nonzero;stroke:rgb(136,136,136);stroke-opacity:0.86;stroke-width:2.18px;"/>
                </g>
                <g id="line2d_3" transform="matrix(1.047389,0,0,1.818348,709.487436,197.401972)">
                    <path d="M87.804,192.691L66.502,155.802" style="fill:none;fill-rule:nonzero;stroke:rgb(136,136,136);stroke-opacity:0.85;stroke-width:2.13px;"/>
                </g>
                <g id="line2d_4" transform="matrix(1.047389,0,0,1.818348,709.487436,197.401972)">
                    <path d="M87.804,192.691L122.452,86.068" style="fill:none;fill-rule:nonzero;stroke:rgb(136,136,136);stroke-opacity:0.36;stroke-width:0.55px;"/>
                </g>
                <g id="line2d_5" transform="matrix(1.047389,0,0,1.818348,709.487436,197.401972)">
                    <path d="M87.804,192.691L161.421,127.984" style="fill:none;fill-rule:nonzero;stroke:rgb(136,136,136);stroke-opacity:0.36;stroke-width:0.54px;"/>
                </g>
                <g id="line2d_6" transform="matrix(1.047389,0,0,1.818348,709.487436,197.401972)">
                    <path d="M87.804,192.691L172.281,98.371" style="fill:none;fill-rule:nonzero;stroke:rgb(136,136,136);stroke-opacity:0.35;stroke-width:0.5px;"/>
                </g>
                <g id="line2d_7" transform="matrix(1.047389,0,0,1.818348,709.487436,197.401972)">
                    <path d="M87.804,192.691L152.99,212.091" style="fill:none;fill-rule:nonzero;stroke:rgb(136,136,136);stroke-opacity:0.59;stroke-width:1.29px;"/>
                </g>
                <g id="line2d_8" transform="matrix(1.047389,0,0,1.818348,709.487436,197.401972)">
                    <path d="M87.804,192.691L119.589,145.597" style="fill:none;fill-rule:nonzero;stroke:rgb(136,136,136);stroke-opacity:0.6;stroke-width:1.34px;"/>
                </g>
                <g id="line2d_9" transform="matrix(1.047389,0,0,1.818348,709.487436,197.401972)">
                    <path d="M87.804,192.691L202.808,157.333" style="fill:none;fill-rule:nonzero;stroke:rgb(136,136,136);stroke-opacity:0.35;stroke-width:0.51px;"/>
                </g>
                <g id="line2d_10" transform="matrix(1.047389,0,0,1.818348,709.487436,197.401972)">
                    <path d="M47.776,186.927L77.622,235.704" style="fill:none;fill-rule:nonzero;stroke:rgb(136,136,136);stroke-opacity:0.87;stroke-width:2.2px;"/>
                </g>
                <g id="line2d_11" transform="matrix(1.047389,0,0,1.818348,709.487436,197.401972)">
                    <path d="M47.776,186.927L66.502,155.802" style="fill:none;fill-rule:nonzero;stroke:rgb(136,136,136);stroke-opacity:0.85;stroke-width:2.16px;"/>
                </g>
                <g id="line2d_12" transform="matrix(1.047389,0,0,1.818348,709.487436,197.401972)">
                    <path d="M47.776,186.927L122.452,86.068" style="fill:none;fill-rule:nonzero;stroke:rgb(136,136,136);stroke-opacity:0.37;stroke-width:0.57px;"/>
                </g>
                <g id="line2d_13" transform="matrix(1.047389,0,0,1.818348,709.487436,197.401972)">
                    <path d="M47.776,186.927L161.421,127.984" style="fill:none;fill-rule:nonzero;stroke:rgb(136,136,136);stroke-opacity:0.36;stroke-width:0.55px;"/>
                </g>
                <g id="line2d_14" transform="matrix(1.047389,0,0,1.818348,709.487436,197.401972)">
                    <path d="M47.776,186.927L172.281,98.371" style="fill:none;fill-rule:nonzero;stroke:rgb(136,136,136);stroke-opacity:0.35;stroke-width:0.52px;"/>
                </g>
                <g id="line2d_15" transform="matrix(1.047389,0,0,1.818348,709.487436,197.401972)">
                    <path d="M47.776,186.927L152.99,212.091" style="fill:none;fill-rule:nonzero;stroke:rgb(136,136,136);stroke-opacity:0.59;stroke-width:1.29px;"/>
                </g>
                <g id="line2d_16" transform="matrix(1.047389,0,0,1.818348,709.487436,197.401972)">
                    <path d="M47.776,186.927L119.589,145.597" style="fill:none;fill-rule:nonzero;stroke:rgb(136,136,136);stroke-opacity:0.61;stroke-width:1.36px;"/>
                </g>
                <g id="line2d_17" transform="matrix(1.047389,0,0,1.818348,709.487436,197.401972)">
                    <path d="M77.622,235.704L66.502,155.802" style="fill:none;fill-rule:nonzero;stroke:rgb(136,136,136);stroke-opacity:0.86;stroke-width:2.17px;"/>
                </g>
                <g id="line2d_18" transform="matrix(1.047389,0,0,1.818348,709.487436,197.401972)">
                    <path d="M77.622,235.704L219.148,257.497" style="fill:none;fill-rule:nonzero;stroke:rgb(136,136,136);stroke-opacity:0.35;stroke-width:0.52px;"/>
                </g>
                <g id="line2d_19" transform="matrix(1.047389,0,0,1.818348,709.487436,197.401972)">
                    <path d="M77.622,235.704L214.153,219.614" style="fill:none;fill-rule:nonzero;stroke:rgb(136,136,136);stroke-opacity:0.36;stroke-width:0.54px;"/>
                </g>
                <g id="line2d_20" transform="matrix(1.047389,0,0,1.818348,709.487436,197.401972)">
                    <path d="M77.622,235.704L152.99,212.091" style="fill:none;fill-rule:nonzero;stroke:rgb(136,136,136);stroke-opacity:0.6;stroke-width:1.33px;"/>
                </g>
                <g id="line2d_21" transform="matrix(1.047389,0,0,1.818348,709.487436,197.401972)">
                    <path d="M77.622,235.704L119.589,145.597" style="fill:none;fill-rule:nonzero;stroke:rgb(136,136,136);stroke-opacity:0.6;stroke-width:1.32px;"/>
                </g>
                <g id="line2d_22" transform="matrix(1.047389,0,0,1.818348,709.487436,197.401972)">
                    <path d="M66.502,155.802L122.452,86.068" style="fill:none;fill-rule:nonzero;stroke:rgb(136,136,136);stroke-opacity:0.37;stroke-width:0.56px;"/>
                </g>
                <g id="line2d_23" transform="matrix(1.047389,0,0,1.818348,709.487436,197.401972)">
                    <path d="M66.502,155.802L161.421,127.984" style="fill:none;fill-rule:nonzero;stroke:rgb(136,136,136);stroke-opacity:0.36;stroke-width:0.55px;"/>
                </g>
                <g id="line2d_24" transform="matrix(1.047389,0,0,1.818348,709.487436,197.401972)">
                    <path d="M66.502,155.802L172.281,98.371" style="fill:none;fill-rule:nonzero;stroke:rgb(136,136,136);stroke-opacity:0.35;stroke-width:0.51px;"/>
                </g>
                <g id="line2d_25" transform="matrix(1.047389,0,0,1.818348,709.487436,197.401972)">
                    <path d="M66.502,155.802L152.99,212.091" style="fill:none;fill-rule:nonzero;stroke:rgb(136,136,136);stroke-opacity:0.59;stroke-width:1.29px;"/>
                </g>
                <g id="line2d_26" transform="matrix(1.047389,0,0,1.818348,709.487436,197.401972)">
                    <path d="M66.502,155.802L119.589,145.597" style="fill:none;fill-rule:nonzero;stroke:rgb(136,136,136);stroke-opacity:0.6;stroke-width:1.34px;"/>
                </g>
                <g id="line2d_27" transform="matrix(1.047389,0,0,1.818348,709.487436,197.401972)">
                    <path d="M66.502,155.802L202.808,157.333" style="fill:none;fill-rule:nonzero;stroke:rgb(136,136,136);stroke-opacity:0.35;stroke-width:0.51px;"/>
                </g>
                <g id="line2d_28" transform="matrix(1.047389,0,0,1.818348,709.487436,197.401972)">
                    <path d="M219.148,257.497L264.53,243.719" style="fill:none;fill-rule:nonzero;stroke:rgb(136,136,136);stroke-opacity:0.89;stroke-width:2.27px;"/>
                </g>
                <g id="line2d_29" transform="matrix(1.047389,0,0,1.818348,709.487436,197.401972)">
                    <path d="M219.148,257.497L214.153,219.614" style="fill:none;fill-rule:nonzero;stroke:rgb(136,136,136);stroke-opacity:0.85;stroke-width:2.13px;"/>
                </g>
                <g id="line2d_30" transform="matrix(1.047389,0,0,1.818348,709.487436,197.401972)">
                    <path d="M219.148,257.497L251.778,196.85" style="fill:none;fill-rule:nonzero;stroke:rgb(136,136,136);stroke-opacity:0.86;stroke-width:2.17px;"/>
                </g>
                <g id="line2d_31" transform="matrix(1.047389,0,0,1.818348,709.487436,197.401972)">
                    <path d="M219.148,257.497L161.421,127.984" style="fill:none;fill-rule:nonzero;stroke:rgb(136,136,136);stroke-opacity:0.35;stroke-width:0.52px;"/>
                </g>
                <g id="line2d_32" transform="matrix(1.047389,0,0,1.818348,709.487436,197.401972)">
                    <path d="M219.148,257.497L152.99,212.091" style="fill:none;fill-rule:nonzero;stroke:rgb(136,136,136);stroke-opacity:0.6;stroke-width:1.32px;"/>
                </g>
                <g id="line2d_33" transform="matrix(1.047389,0,0,1.818348,709.487436,197.401972)">
                    <path d="M219.148,257.497L202.808,157.333" style="fill:none;fill-rule:nonzero;stroke:rgb(136,136,136);stroke-opacity:0.6;stroke-width:1.33px;"/>
                </g>
                <g id="line2d_34" transform="matrix(1.047389,0,0,1.818348,709.487436,197.401972)">
                    <path d="M264.53,243.719L214.153,219.614" style="fill:none;fill-rule:nonzero;stroke:rgb(136,136,136);stroke-opacity:0.87;stroke-width:2.21px;"/>
                </g>
                <g id="line2d_35" transform="matrix(1.047389,0,0,1.818348,709.487436,197.401972)">
                    <path d="M264.53,243.719L251.778,196.85" style="fill:none;fill-rule:nonzero;stroke:rgb(136,136,136);stroke-opacity:0.89;stroke-width:2.26px;"/>
                </g>
                <g id="line2d_36" transform="matrix(1.047389,0,0,1.818348,709.487436,197.401972)">
                    <path d="M264.53,243.719L152.99,212.091" style="fill:none;fill-rule:nonzero;stroke:rgb(136,136,136);stroke-opacity:0.6;stroke-width:1.34px;"/>
                </g>
                <g id="line2d_37" transform="matrix(1.047389,0,0,1.818348,709.487436,197.401972)">
                    <path d="M264.53,243.719L202.808,157.333" style="fill:none;fill-rule:nonzero;stroke:rgb(136,136,136);stroke-opacity:0.61;stroke-width:1.35px;"/>
                </g>
                <g id="line2d_38" transform="matrix(1.047389,0,0,1.818348,709.487436,197.401972)">
                    <path d="M214.153,219.614L251.778,196.85" style="fill:none;fill-rule:nonzero;stroke:rgb(136,136,136);stroke-opacity:0.84;stroke-width:2.12px;"/>
                </g>
                <g id="line2d_39" transform="matrix(1.047389,0,0,1.818348,709.487436,197.401972)">
                    <path d="M214.153,219.614L161.421,127.984" style="fill:none;fill-rule:nonzero;stroke:rgb(136,136,136);stroke-opacity:0.36;stroke-width:0.55px;"/>
                </g>
                <g id="line2d_40" transform="matrix(1.047389,0,0,1.818348,709.487436,197.401972)">
                    <path d="M214.153,219.614L172.281,98.371" style="fill:none;fill-rule:nonzero;stroke:rgb(136,136,136);stroke-opacity:0.35;stroke-width:0.5px;"/>
                </g>
                <g id="line2d_41" transform="matrix(1.047389,0,0,1.818348,709.487436,197.401972)">
                    <path d="M214.153,219.614L152.99,212.091" style="fill:none;fill-rule:nonzero;stroke:rgb(136,136,136);stroke-opacity:0.59;stroke-width:1.3px;"/>
                </g>
                <g id="line2d_42" transform="matrix(1.047389,0,0,1.818348,709.487436,197.401972)">
                    <path d="M214.153,219.614L119.589,145.597" style="fill:none;fill-rule:nonzero;stroke:rgb(136,136,136);stroke-opacity:0.35;stroke-width:0.52px;"/>
                </g>
                <g id="line2d_43" transform="matrix(1.047389,0,0,1.818348,709.487436,197.401972)">
                    <path d="M214.153,219.614L202.808,157.333" style="fill:none;fill-rule:nonzero;stroke:rgb(136,136,136);stroke-opacity:0.6;stroke-width:1.32px;"/>
                </g>
                <g id="line2d_44" transform="matrix(1.047389,0,0,1.818348,709.487436,197.401972)">
                    <path d="M251.778,196.85L161.421,127.984" style="fill:none;fill-rule:nonzero;stroke:rgb(136,136,136);stroke-opacity:0.37;stroke-width:0.57px;"/>
                </g>
                <g id="line2d_45" transform="matrix(1.047389,0,0,1.818348,709.487436,197.401972)">
                    <path d="M251.778,196.85L172.281,98.371" style="fill:none;fill-rule:nonzero;stroke:rgb(136,136,136);stroke-opacity:0.35;stroke-width:0.51px;"/>
                </g>
                <g id="line2d_46" transform="matrix(1.047389,0,0,1.818348,709.487436,197.401972)">
                    <path d="M251.778,196.85L152.99,212.091" style="fill:none;fill-rule:nonzero;stroke:rgb(136,136,136);stroke-opacity:0.59;stroke-width:1.29px;"/>
                </g>
                <g id="line2d_47" transform="matrix(1.047389,0,0,1.818348,709.487436,197.401972)">
                    <path d="M251.778,196.85L119.589,145.597" style="fill:none;fill-rule:nonzero;stroke:rgb(136,136,136);stroke-opacity:0.35;stroke-width:0.5px;"/>
                </g>
                <g id="line2d_48" transform="matrix(1.047389,0,0,1.818348,709.487436,197.401972)">
                    <path d="M251.778,196.85L202.808,157.333" style="fill:none;fill-rule:nonzero;stroke:rgb(136,136,136);stroke-opacity:0.61;stroke-width:1.34px;"/>
                </g>
                <g id="line2d_49" transform="matrix(1.047389,0,0,1.818348,709.487436,197.401972)">
                    <path d="M122.452,86.068L170.82,55.767" style="fill:none;fill-rule:nonzero;stroke:rgb(136,136,136);stroke-opacity:0.89;stroke-width:2.29px;"/>
                </g>
                <g id="line2d_50" transform="matrix(1.047389,0,0,1.818348,709.487436,197.401972)">
                    <path d="M122.452,86.068L161.421,127.984" style="fill:none;fill-rule:nonzero;stroke:rgb(136,136,136);stroke-opacity:0.84;stroke-width:2.11px;"/>
                </g>
                <g id="line2d_51" transform="matrix(1.047389,0,0,1.818348,709.487436,197.401972)">
                    <path d="M122.452,86.068L172.281,98.371" style="fill:none;fill-rule:nonzero;stroke:rgb(136,136,136);stroke-opacity:0.87;stroke-width:2.2px;"/>
                </g>
                <g id="line2d_52" transform="matrix(1.047389,0,0,1.818348,709.487436,197.401972)">
                    <path d="M122.452,86.068L152.99,212.091" style="fill:none;fill-rule:nonzero;stroke:rgb(136,136,136);stroke-opacity:0.35;stroke-width:0.51px;"/>
                </g>
                <g id="line2d_53" transform="matrix(1.047389,0,0,1.818348,709.487436,197.401972)">
                    <path d="M122.452,86.068L119.589,145.597" style="fill:none;fill-rule:nonzero;stroke:rgb(136,136,136);stroke-opacity:0.6;stroke-width:1.33px;"/>
                </g>
                <g id="line2d_54" transform="matrix(1.047389,0,0,1.818348,709.487436,197.401972)">
                    <path d="M122.452,86.068L202.808,157.333" style="fill:none;fill-rule:nonzero;stroke:rgb(136,136,136);stroke-opacity:0.59;stroke-width:1.29px;"/>
                </g>
                <g id="line2d_55" transform="matrix(1.047389,0,0,1.818348,709.487436,197.401972)">
                    <path d="M170.82,55.767L161.421,127.984" style="fill:none;fill-rule:nonzero;stroke:rgb(136,136,136);stroke-opacity:0.87;stroke-width:2.2px;"/>
                </g>
                <g id="line2d_56" transform="matrix(1.047389,0,0,1.818348,709.487436,197.401972)">
                    <path d="M170.82,55.767L172.281,98.371" style="fill:none;fill-rule:nonzero;stroke:rgb(136,136,136);stroke-opacity:0.9;stroke-width:2.3px;"/>
                </g>
                <g id="line2d_57" transform="matrix(1.047389,0,0,1.818348,709.487436,197.401972)">
                    <path d="M170.82,55.767L119.589,145.597" style="fill:none;fill-rule:nonzero;stroke:rgb(136,136,136);stroke-opacity:0.6;stroke-width:1.33px;"/>
                </g>
                <g id="line2d_58" transform="matrix(1.047389,0,0,1.818348,709.487436,197.401972)">
                    <path d="M170.82,55.767L202.808,157.333" style="fill:none;fill-rule:nonzero;stroke:rgb(136,136,136);stroke-opacity:0.6;stroke-width:1.34px;"/>
                </g>
                <g id="line2d_59" transform="matrix(1.047389,0,0,1.818348,709.487436,197.401972)">
                    <path d="M161.421,127.984L172.281,98.371" style="fill:none;fill-rule:nonzero;stroke:rgb(136,136,136);stroke-opacity:0.84;stroke-width:2.12px;"/>
                </g>
                <g id="line2d_60" transform="matrix(1.047389,0,0,1.818348,709.487436,197.401972)">
                    <path d="M161.421,127.984L152.99,212.091" style="fill:none;fill-rule:nonzero;stroke:rgb(136,136,136);stroke-opacity:0.36;stroke-width:0.55px;"/>
                </g>
                <g id="line2d_61" transform="matrix(1.047389,0,0,1.818348,709.487436,197.401972)">
                    <path d="M161.421,127.984L119.589,145.597" style="fill:none;fill-rule:nonzero;stroke:rgb(136,136,136);stroke-opacity:0.59;stroke-width:1.29px;"/>
                </g>
                <g id="line2d_62" transform="matrix(1.047389,0,0,1.818348,709.487436,197.401972)">
                    <path d="M161.421,127.984L202.808,157.333" style="fill:none;fill-rule:nonzero;stroke:rgb(136,136,136);stroke-opacity:0.59;stroke-width:1.3px;"/>
                </g>
                <g id="line2d_63" transform="matrix(1.047389,0,0,1.818348,709.487436,197.401972)">
                    <path d="M172.281,98.371L152.99,212.091" style="fill:none;fill-rule:nonzero;stroke:rgb(136,136,136);stroke-opacity:0.35;stroke-width:0.51px;"/>
                </g>
                <g id="line2d_64" transform="matrix(1.047389,0,0,1.818348,709.487436,197.401972)">
                    <path d="M172.281,98.371L119.589,145.597" style="fill:none;fill-rule:nonzero;stroke:rgb(136,136,136);stroke-opacity:0.6;stroke-width:1.31px;"/>
                </g>
                <g id="line2d_65" transform="matrix(1.047389,0,0,1.818348,709.487436,197.401972)">
                    <path d="M172.281,98.371L202.808,157.333" style="fill:none;fill-rule:nonzero;stroke:rgb(136,136,136);stroke-opacity:0.6;stroke-width:1.32px;"/>
                </g>
                <g id="line2d_66" transform="matrix(1.047389,0,0,1.818348,709.487436,197.401972)">
                    <path d="M152.99,212.091L119.589,145.597" style="fill:none;fill-rule:nonzero;stroke:rgb(136,136,136);stroke-opacity:0.48;stroke-width:0.92px;"/>
                </g>
                <g id="line2d_67" transform="matrix(1.047389,0,0,1.818348,709.487436,197.401972)">
                    <path d="M152.99,212.091L202.808,157.333" style="fill:none;fill-rule:nonzero;stroke:rgb(136,136,136);stroke-opacity:0.48;stroke-width:0.92px;"/>
                </g>
                <g id="line2d_68" transform="matrix(1.047389,0,0,1.818348,709.487436,197.401972)">
                    <path d="M119.589,145.597L202.808,157.333" style="fill:none;fill-rule:nonzero;stroke:rgb(136,136,136);stroke-opacity:0.47;stroke-width:0.9px;"/>
                </g>
                <g id="patch_20" transform="matrix(1.047389,0,0,1.818348,709.487436,197.401972)">
                    <path d="M87.804,204.261C90.873,204.261 93.816,203.042 95.985,200.873C98.155,198.703 99.374,195.76 99.374,192.691C99.374,189.623 98.155,186.68 95.985,184.51C93.816,182.34 90.873,181.121 87.804,181.121C84.736,181.121 81.793,182.34 79.623,184.51C77.453,186.68 76.234,189.623 76.234,192.691C76.234,195.76 77.453,198.703 79.623,200.873C81.793,203.042 84.736,204.261 87.804,204.261Z" style="fill:rgb(204,102,119);fill-opacity:0.8;fill-rule:nonzero;stroke:white;stroke-width:1px;stroke-linecap:butt;"/>
                </g>
                <g id="patch_21" transform="matrix(1.047389,0,0,1.818348,709.487436,197.401972)">
                    <path d="M47.776,198.497C50.845,198.497 53.788,197.278 55.957,195.108C58.127,192.939 59.346,189.995 59.346,186.927C59.346,183.859 58.127,180.915 55.957,178.746C53.788,176.576 50.845,175.357 47.776,175.357C44.708,175.357 41.765,176.576 39.595,178.746C37.425,180.915 36.206,183.859 36.206,186.927C36.206,189.995 37.425,192.939 39.595,195.108C41.765,197.278 44.708,198.497 47.776,198.497Z" style="fill:rgb(204,102,119);fill-opacity:0.8;fill-rule:nonzero;stroke:white;stroke-width:1px;stroke-linecap:butt;"/>
                </g>
                <g id="patch_22" transform="matrix(1.047389,0,0,1.818348,709.487436,197.401972)">
                    <path d="M77.622,247.275C80.69,247.275 83.633,246.055 85.803,243.886C87.973,241.716 89.192,238.773 89.192,235.704C89.192,232.636 87.973,229.693 85.803,227.523C83.633,225.353 80.69,224.134 77.622,224.134C74.553,224.134 71.61,225.353 69.441,227.523C67.271,229.693 66.052,232.636 66.052,235.704C66.052,238.773 67.271,241.716 69.441,243.886C71.61,246.055 74.553,247.275 77.622,247.275Z" style="fill:rgb(204,102,119);fill-opacity:0.8;fill-rule:nonzero;stroke:white;stroke-width:1px;stroke-linecap:butt;"/>
                </g>
                <g id="patch_23" transform="matrix(1.047389,0,0,1.818348,709.487436,197.401972)">
                    <path d="M66.502,167.372C69.571,167.372 72.514,166.153 74.684,163.983C76.853,161.813 78.073,158.87 78.073,155.802C78.073,152.733 76.853,149.79 74.684,147.62C72.514,145.451 69.571,144.232 66.502,144.232C63.434,144.232 60.491,145.451 58.321,147.62C56.151,149.79 54.932,152.733 54.932,155.802C54.932,158.87 56.151,161.813 58.321,163.983C60.491,166.153 63.434,167.372 66.502,167.372Z" style="fill:rgb(204,102,119);fill-opacity:0.8;fill-rule:nonzero;stroke:white;stroke-width:1px;stroke-linecap:butt;"/>
                </g>
                <g id="patch_24" transform="matrix(1.047389,0,0,1.818348,709.487436,197.401972)">
                    <path d="M219.148,269.067C222.217,269.067 225.16,267.848 227.33,265.678C229.499,263.508 230.718,260.565 230.718,257.497C230.718,254.428 229.499,251.485 227.33,249.315C225.16,247.146 222.217,245.927 219.148,245.927C216.08,245.927 213.137,247.146 210.967,249.315C208.797,251.485 207.578,254.428 207.578,257.497C207.578,260.565 208.797,263.508 210.967,265.678C213.137,267.848 216.08,269.067 219.148,269.067Z" style="fill:rgb(51,34,136);fill-opacity:0.8;fill-rule:nonzero;stroke:white;stroke-width:1px;stroke-linecap:butt;"/>
                </g>
                <g id="patch_25" transform="matrix(1.047389,0,0,1.818348,709.487436,197.401972)">
                    <path d="M264.53,255.289C267.598,255.289 270.541,254.07 272.711,251.9C274.881,249.73 276.1,246.787 276.1,243.719C276.1,240.65 274.881,237.707 272.711,235.537C270.541,233.368 267.598,232.149 264.53,232.149C261.461,232.149 258.518,233.368 256.349,235.537C254.179,237.707 252.96,240.65 252.96,243.719C252.96,246.787 254.179,249.73 256.349,251.9C258.518,254.07 261.461,255.289 264.53,255.289Z" style="fill:rgb(51,34,136);fill-opacity:0.8;fill-rule:nonzero;stroke:white;stroke-width:1px;stroke-linecap:butt;"/>
                </g>
                <g id="patch_26" transform="matrix(1.047389,0,0,1.818348,709.487436,197.401972)">
                    <path d="M214.153,231.184C217.222,231.184 220.165,229.965 222.335,227.795C224.504,225.625 225.723,222.682 225.723,219.614C225.723,216.545 224.504,213.602 222.335,211.432C220.165,209.263 217.222,208.044 214.153,208.044C211.085,208.044 208.142,209.263 205.972,211.432C203.802,213.602 202.583,216.545 202.583,219.614C202.583,222.682 203.802,225.625 205.972,227.795C208.142,229.965 211.085,231.184 214.153,231.184Z" style="fill:rgb(51,34,136);fill-opacity:0.8;fill-rule:nonzero;stroke:white;stroke-width:1px;stroke-linecap:butt;"/>
                </g>
                <g id="patch_27" transform="matrix(1.047389,0,0,1.818348,709.487436,197.401972)">
                    <path d="M251.778,208.42C254.846,208.42 257.789,207.201 259.959,205.031C262.129,202.861 263.348,199.918 263.348,196.85C263.348,193.781 262.129,190.838 259.959,188.669C257.789,186.499 254.846,185.28 251.778,185.28C248.709,185.28 245.766,186.499 243.597,188.669C241.427,190.838 240.208,193.781 240.208,196.85C240.208,199.918 241.427,202.861 243.597,205.031C245.766,207.201 248.709,208.42 251.778,208.42Z" style="fill:rgb(51,34,136);fill-opacity:0.8;fill-rule:nonzero;stroke:white;stroke-width:1px;stroke-linecap:butt;"/>
                </g>
                <g id="patch_28" transform="matrix(1.047389,0,0,1.818348,709.487436,197.401972)">
                    <path d="M122.452,97.638C125.52,97.638 128.463,96.419 130.633,94.249C132.803,92.08 134.022,89.136 134.022,86.068C134.022,83 132.803,80.056 130.633,77.887C128.463,75.717 125.52,74.498 122.452,74.498C119.383,74.498 116.44,75.717 114.27,77.887C112.101,80.056 110.882,83 110.882,86.068C110.882,89.136 112.101,92.08 114.27,94.249C116.44,96.419 119.383,97.638 122.452,97.638Z" style="fill:rgb(68,170,153);fill-opacity:0.8;fill-rule:nonzero;stroke:white;stroke-width:1px;stroke-linecap:butt;"/>
                </g>
                <g id="patch_29" transform="matrix(1.047389,0,0,1.818348,709.487436,197.401972)">
                    <path d="M170.82,67.337C173.889,67.337 176.832,66.118 179.001,63.948C181.171,61.778 182.39,58.835 182.39,55.767C182.39,52.698 181.171,49.755 179.001,47.585C176.832,45.416 173.889,44.197 170.82,44.197C167.752,44.197 164.809,45.416 162.639,47.585C160.469,49.755 159.25,52.698 159.25,55.767C159.25,58.835 160.469,61.778 162.639,63.948C164.809,66.118 167.752,67.337 170.82,67.337Z" style="fill:rgb(68,170,153);fill-opacity:0.8;fill-rule:nonzero;stroke:white;stroke-width:1px;stroke-linecap:butt;"/>
                </g>
                <g id="patch_30" transform="matrix(1.047389,0,0,1.818348,709.487436,197.401972)">
                    <path d="M161.421,139.554C164.489,139.554 167.432,138.335 169.602,136.165C171.772,133.995 172.991,131.052 172.991,127.984C172.991,124.915 171.772,121.972 169.602,119.802C167.432,117.633 164.489,116.414 161.421,116.414C158.352,116.414 155.409,117.633 153.239,119.802C151.07,121.972 149.85,124.915 149.85,127.984C149.85,131.052 151.07,133.995 153.239,136.165C155.409,138.335 158.352,139.554 161.421,139.554Z" style="fill:rgb(68,170,153);fill-opacity:0.8;fill-rule:nonzero;stroke:white;stroke-width:1px;stroke-linecap:butt;"/>
                </g>
                <g id="patch_31" transform="matrix(1.047389,0,0,1.818348,709.487436,197.401972)">
                    <path d="M172.281,109.941C175.35,109.941 178.293,108.722 180.463,106.552C182.632,104.382 183.851,101.439 183.851,98.371C183.851,95.302 182.632,92.359 180.463,90.19C178.293,88.02 175.35,86.801 172.281,86.801C169.213,86.801 166.27,88.02 164.1,90.19C161.93,92.359 160.711,95.302 160.711,98.371C160.711,101.439 161.93,104.382 164.1,106.552C166.27,108.722 169.213,109.941 172.281,109.941Z" style="fill:rgb(68,170,153);fill-opacity:0.8;fill-rule:nonzero;stroke:white;stroke-width:1px;stroke-linecap:butt;"/>
                </g>
                <g id="patch_32" transform="matrix(1.047389,0,0,1.818348,709.487436,197.401972)">
                    <path d="M152.99,223.661C156.058,223.661 159.001,222.442 161.171,220.272C163.341,218.102 164.56,215.159 164.56,212.091C164.56,209.022 163.341,206.079 161.171,203.91C159.001,201.74 156.058,200.521 152.99,200.521C149.921,200.521 146.978,201.74 144.809,203.91C142.639,206.079 141.42,209.022 141.42,212.091C141.42,215.159 142.639,218.102 144.809,220.272C146.978,222.442 149.921,223.661 152.99,223.661Z" style="fill:rgb(51,34,136);fill-opacity:0.8;fill-rule:nonzero;stroke:rgb(204,102,119);stroke-width:1.58px;stroke-linecap:butt;"/>
                </g>
                <g id="patch_33" transform="matrix(1.047389,0,0,1.818348,709.487436,197.401972)">
                    <path d="M119.589,157.167C122.658,157.167 125.601,155.948 127.771,153.778C129.94,151.609 131.159,148.666 131.159,145.597C131.159,142.529 129.94,139.585 127.771,137.416C125.601,135.246 122.658,134.027 119.589,134.027C116.521,134.027 113.578,135.246 111.408,137.416C109.238,139.585 108.019,142.529 108.019,145.597C108.019,148.666 109.238,151.609 111.408,153.778C113.578,155.948 116.521,157.167 119.589,157.167Z" style="fill:rgb(204,102,119);fill-rule:nonzero;stroke:rgb(68,170,153);stroke-opacity:0.8;stroke-width:1.58px;stroke-linecap:butt;"/>
                </g>
                <g id="patch_34" transform="matrix(1.047389,0,0,1.818348,709.487436,197.401972)">
                    <path d="M202.808,168.903C205.876,168.903 208.819,167.684 210.989,165.514C213.159,163.344 214.378,160.401 214.378,157.333C214.378,154.264 213.159,151.321 210.989,149.151C208.819,146.982 205.876,145.763 202.808,145.763C199.739,145.763 196.796,146.982 194.627,149.151C192.457,151.321 191.238,154.264 191.238,157.333C191.238,160.401 192.457,163.344 194.627,165.514C196.796,167.684 199.739,168.903 202.808,168.903Z" style="fill:rgb(68,170,153);fill-opacity:0.8;fill-rule:nonzero;stroke:rgb(51,34,136);stroke-opacity:0.8;stroke-width:1.58px;stroke-linecap:butt;"/>
                </g>
            </g>
            <g transform="matrix(6.602758,0,0,4.384151,-33149.265478,-18377.180695)">
                <g transform="matrix(41.666667,0,0,41.666667,5241.802904,4535.598441)">
                </g>
                <text x="5109.861px" y="4535.598px" style="font-family:'ArialMT', 'Arial', sans-serif;font-size:41.667px;">PySRF</text>
            </g>
        </g>
    </g>
</svg>
